<svg id="Capa_1" data-name="Capa 1" xmlns="http://www.w3.org/2000/svg" viewBox="0 0 399.6 550.8"><defs><style>.cls-1{fill:#fff;}</style></defs><title>CSS_Icon</title><path class="cls-1" d="M475.2,133.2v396a21.62,21.62,0,0,1-21.6,21.6H97.2a21.62,21.62,0,0,1-21.6-21.6V21.6A21.62,21.62,0,0,1,97.2,0h261a10.73,10.73,0,0,1,2.48.31c.2,0,.38.13.58.19a11.4,11.4,0,0,1,2.13.89c.24.14.48.27.71.42a10.59,10.59,0,0,1,2.15,1.81s.05,0,.08.07L472.52,125a10.56,10.56,0,0,1,2.56,7A8.4,8.4,0,0,1,475.2,133.2ZM453.6,366.75V142.91H358.19a10.8,10.8,0,0,1-10.8-10.8V21.6H97.2V366.75Zm-38.13,55.41,6.62-23.91c-7.78-3.5-18.66-6.61-33.43-6.61-30.91,0-49.57,17.1-49.57,39.46,0,19,14.19,31.09,36,38.68,15.74,5.64,22,10.3,22,18.47,0,8.55-7.19,14.18-20.8,14.18a75.63,75.63,0,0,1-32.85-8.16l-6,24.49c7.39,4.08,22.16,8,37.13,8,35.95,0,52.87-18.65,52.87-40.63,0-18.46-10.89-30.5-34-39.06-16.91-6.41-24.3-10.1-24.3-18.46,0-6.81,6.22-12.65,19.05-12.65A62.14,62.14,0,0,1,415.47,422.16Zm-105,0,6.61-23.91c-7.78-3.5-18.66-6.61-33.43-6.61-30.91,0-49.57,17.1-49.57,39.46,0,19,14.19,31.09,36,38.68,15.74,5.64,22,10.3,22,18.47,0,8.55-7.19,14.18-20.8,14.18a75.63,75.63,0,0,1-32.85-8.16l-6,24.49c7.38,4.08,22.16,8,37.12,8,36,0,52.87-18.65,52.88-40.63,0-18.46-10.89-30.5-34-39.06-16.91-6.41-24.3-10.1-24.3-18.46,0-6.81,6.22-12.65,19-12.65A62.23,62.23,0,0,1,310.5,422.16Zm-97-1.18,6-23.51c-5.25-2.72-16.92-5.83-32.27-5.83-39.65,0-71.53,24.88-71.53,69.59,0,37.32,23.32,65.5,68.62,65.5,15.93,0,28.18-2.91,33.62-5.63L213.49,498c-5.83,2.34-15.74,4.28-24.68,4.28-26.44,0-42-16.52-42-42.77,0-29.15,18.27-43.33,41.79-43.33A64.09,64.09,0,0,1,213.49,421Z" transform="translate(-75.6 0)"/><path class="cls-1" d="M356.26,211.87v12c-16.73,0-19.1,10.13-19.1,17.44a131.17,131.17,0,0,0,1.89,19.1,133.17,133.17,0,0,1,1.89,19.33c0,23.8-14.85,32.3-34.18,32.3h-4.95v-13h4c13.19-.23,18.86-7.31,18.86-20.51,0-5.65-.95-11.08-1.65-17a104.92,104.92,0,0,1-1.9-17.9c0-15.1,6.6-23.11,17-25.71v-.45c-10.38-2.85-17-10.39-17-25.47a107.83,107.83,0,0,1,1.9-17.91c.7-5.66,1.65-11.33,1.65-16.74,0-12.73-4.95-20-18.63-20.27h-4.24v-13h4.71c20,0,34.43,9.2,34.43,30.88,0,6.62-.95,13-1.89,19.58a139.08,139.08,0,0,0-1.9,19.78C337.16,202.69,339.52,211.87,356.26,211.87Z" transform="translate(-75.6 0)"/><path class="cls-1" d="M240,299.1v13h-5c-19.57,0-34.19-8.5-34.19-32.3a133.19,133.19,0,0,1,1.9-19.33,131.15,131.15,0,0,0,1.88-19.1c0-7.31-2.35-17.44-19.09-17.44v-12c16.74,0,19.09-9.18,19.09-17.44a140.52,140.52,0,0,0-1.88-19.78,136.46,136.46,0,0,1-1.9-19.58c0-21.68,14.16-30.88,34.19-30.88h5v13h-4.24c-13.92,0-18.63,7.54-18.63,20.27a103.72,103.72,0,0,0,1.66,16.74,110.18,110.18,0,0,1,1.65,17.91c.23,15.08-6.37,22.63-17,25.47V218c10.61,2.6,17.22,10.61,17,25.71a107.6,107.6,0,0,1-1.65,17.9,106.63,106.63,0,0,0-1.66,17c0,13.2,5.43,20.51,18.63,20.51Z" transform="translate(-75.6 0)"/></svg>