<svg id="Capa_1" data-name="Capa 1" xmlns="http://www.w3.org/2000/svg" viewBox="0 0 399.6 550.8"><defs><style>.cls-1{fill:#fff;}</style></defs><title>Html_Icon</title><path class="cls-1" d="M457.23,499.31V480.58H419.08V400.7H397.3v98.61Zm18-366.11v396a21.62,21.62,0,0,1-21.6,21.6H97.2a21.62,21.62,0,0,1-21.6-21.6V21.6A21.62,21.62,0,0,1,97.2,0h261a10.19,10.19,0,0,1,2.47.31,5.8,5.8,0,0,1,.59.19,11,11,0,0,1,2.13.89c.24.13.48.27.71.42a10.49,10.49,0,0,1,2.14,1.8s.06,0,.08.07L472.53,125a10.82,10.82,0,0,1,2.57,7A12.08,12.08,0,0,1,475.2,133.2ZM453.61,366.75V142.91H358.2a10.8,10.8,0,0,1-10.8-10.8V21.6H97.2V366.75Zm-73,132.57-5.27-98.62H347l-10.25,32.78c-3.13,11-6.4,24-9.11,35.4h-.42c-2.15-11.56-5.13-23.85-8.12-35.26l-9.4-32.92h-28.9l-6.12,98.62h20.07l1.72-37.46c.69-12.29,1.13-27.51,1.69-40.83h.29c2.28,12.88,5.55,26.93,8.69,38.49l10.25,38.18h16.94L346,459.22c3.7-11.56,7.69-25.61,10.69-38.19h.42c0,14.35.43,28.68.85,40.53l1.43,37.75h21.22ZM265.87,419.43V400.7H192.14v18.73h25.77v79.88h21.78V419.43Zm-85.41,79.88V400.7H158.82v37.89H123.07V400.7H101.3v98.61h21.77V458.05h35.75v41.26Z" transform="translate(-75.6)"/><polygon class="cls-1" points="321.07 233.74 321.07 249.6 238.34 287.52 238.34 269.25 302.29 241.85 302.29 241.51 238.34 214.09 238.34 195.83 321.07 233.74"/><polygon class="cls-1" points="228.33 169.45 191.45 294.42 174.04 294.42 210.93 169.45 228.33 169.45"/><polygon class="cls-1" points="161.27 269.25 161.27 287.52 78.53 249.09 78.53 234.26 161.27 195.83 161.27 214.09 98.69 241.51 98.69 241.85 161.27 269.25"/></svg>