<?xml version="1.0" encoding="utf-8"?>
<!-- Generator: Adobe Illustrator 22.0.0, SVG Export Plug-In . SVG Version: 6.00 Build 0)  -->
<svg version="1.1" id="Layer_1" xmlns="http://www.w3.org/2000/svg" xmlns:xlink="http://www.w3.org/1999/xlink" x="0px" y="0px"
	 viewBox="0 0 834 1148" style="enable-background:new 0 0 834 1148;" xml:space="preserve">
<style type="text/css">
	.st0{fill:#FFFFFF;}
</style>
<g transform="translate(0.000000,1148.000000) scale(0.100000,-0.100000)">
	<g id="XMLID_1_">
		<g>
			<path class="st0" d="M8330,8777V4579c0-4152,0-4198-20-4261c-46-150-165-262-323-304C7943,2,7360,0,4170,0C819,0,398,2,345,15
				C193,55,77,165,24,320C5,374,5,509,5,5740s0,5366,19,5420c53,154,168,264,317,304c47,13,436,15,2824,15l2770,1l52-24
				c47-22,150-137,1175-1308c617-706,1133-1303,1145-1327L8330,8777z M7880,3840v2330v2330H6865c-1104,0-1045-3-1121,55
				c-17,13-41,44-53,69l-21,46v1180v1180H3065H460V7435V3840h3710H7880z M6118,760c109,194,139,481,77,725c-44,175-122,305-257,430
				c-144,133-305,225-685,390c-248,108-331,153-395,213c-86,80-115,186-83,298c23,81,98,156,181,180c87,25,221,16,301-20
				c70-32,161-119,207-198c15-27,32-48,36-48c13,0,525,330,528,341c7,19-115,187-193,264c-169,170-364,254-638,275
				c-67,5-131,9-142,8c-333-19-545-101-723-280c-169-168-246-364-245-623c0-293,83-496,275-681c138-132,301-228,608-359
				c342-145,448-214,501-321c28-56,33-77,33-142c0-62-5-88-25-132c-61-131-180-190-384-190c-110,0-180,15-260,56
				c-108,54-221,170-318,326c-23,38-45,68-49,68c-8,0-513-333-532-350c-11-11,53-123,127-224c188-255,437-407,772-473
				c125-24,422-24,555,0C5727,355,5984,520,6118,760z M3365,1059c13,73,15,265,13,1321l-3,1235l-351,3c-193,1-353-1-357-5
				c-4-3-7-525-7-1158c0-786-3-1170-11-1210c-13-73-43-137-80-174c-93-94-304-105-467-25c-84,41-189,140-237,222c-19,33-36,51-46,50
				c-9-2-136-75-282-163c-190-114-266-165-267-178c0-27,71-144,139-229c316-397,795-559,1289-437C3072,403,3296,654,3365,1059z"/>
			<path class="st0" d="M5900,6591v-138l-78-6c-191-15-306-110-342-282c-17-82-7-246,30-508c55-381,59-513,20-682
				c-36-154-105-270-212-350c-139-104-284-146-513-149l-130-1v145v145l110,7c147,8,211,32,286,107c126,127,143,299,71,756
				c-34,220-38,503-9,600c54,175,159,291,309,341l51,17l-61,23c-162,61-269,190-307,370c-24,113-19,287,15,527c17,117,35,265,41,329
				c22,255-33,423-163,498c-72,41-114,52-238,59l-105,6l-3,134c-1,74,0,142,3,150c8,20,233,8,358-19c108-23,249-90,319-150
				c64-55,131-160,162-251c55-164,55-328,0-703c-55-382-55-555,0-664c54-106,182-172,336-172h50V6591z"/>
			<path class="st0" d="M4385,7819c0-102-1-108-37-181c-57-114-150-191-273-222c-145-38-291,2-399,110c-220,220-135,590,160,693
				c47,17,77,21,149,18c130-5,191-31,281-121C4362,8020,4384,7965,4385,7819z"/>
			<path class="st0" d="M4245,6095v-505c0-482-1-507-20-545c-46-93-130-147-241-153c-93-5-157,21-219,90c-76,84-76,87-73,625l3,469
				l30,59c35,68,84,111,157,137c65,23,136,19,205-12c58-26,96-60,131-120L4245,6095z"/>
			<path class="st0" d="M3288,8549l3-146l-118-5c-137-6-206-28-271-84c-128-109-153-309-92-724c40-268,49-474,26-590
				c-35-176-116-289-259-360c-44-22-86-40-94-40c-27,0-3-17,43-30c69-19,157-82,208-146c123-158,143-375,76-834
				c-28-188-31-235-28-375c4-134,8-169,26-214c63-159,160-220,365-229l118-5l-3-146l-3-146l-130,1c-72,1-157,7-190,13
				c-310,62-483,225-541,511c-25,124-15,375,25,645c41,273,50,456,27,545c-18,70-60,140-108,179c-50,40-144,73-230,78l-78,6v138v139
				h53c70,0,173,26,224,55c56,34,109,97,130,159c30,85,23,329-17,601c-44,298-51,531-21,657c68,286,274,451,610,487
				c42,5,114,8,161,7l85-1L3288,8549z"/>
		</g>
	</g>
</g>
</svg>
