<svg id="Layer_1" data-name="Layer 1" xmlns="http://www.w3.org/2000/svg" viewBox="0 0 2497.13 711.49"><defs><style>.cls-1{fill:#fff;}.cls-2{fill:#a6a385;}</style></defs><title>Mongodb_Icon</title><path class="cls-1" d="M2497.13,485.43c0,43.26-27,70.75-66.24,87.87-23.88,10.36-53.62,14-83.81,14-23,0-84.71-2.7-119-1.8-3.6-1.36,3.16-17.58,6.31-20.28,8.11-.45,14.42-.9,23-3.61,12.17-3.15,13.52-6.75,15.32-25.23.9-15.77.9-71.65.9-111.3,0-54.52.46-91.47,0-109.49-.45-14-5.4-18.47-15.31-21.18-7.67-1.35-20.28-3.15-30.65-4.5-2.26-2.26,5.41-17.58,8.12-19.38,4.5,0,18,1.35,52.71,1.35,32.9,0,59-.9,91-.9,39.2,0,93.27,14,93.27,72.55,0,28.83-20.28,51.82-46.86,63.08-1.35.45-1.35,1.35,0,1.8C2463.78,417.85,2497.13,441.28,2497.13,485.43Zm-119.86,77.51c35.6,0,66.69-19.83,66.69-66.24,0-44.61-32.9-69.39-92.37-69.39-2.71,0-21.63-.45-26.14.44-1.35.46-3.15,1.36-3.15,2.71,0,32-.45,82.92.9,102.74.9,8.56,7.21,20.73,14.87,24.33C2346.18,562,2364.65,562.94,2377.27,562.94Zm21.63-163.11c16.22-8.12,23.88-25.69,23.88-45.07,0-43.7-30.64-60.38-76.15-60.38a72.35,72.35,0,0,0-18.93.9c-2.25.45-4.5,5.41-4.5,8.11-.45,18-.9,65.79-.9,98.23,0,.91,1.35,2.71,2.7,2.71,6.76.45,23,.9,36.95.9C2381.32,405.23,2392.59,402.53,2398.9,399.83Z" transform="translate(0 -1.05)"/><path class="cls-1" d="M2143,305.65c32.89,28.38,50,67.59,50,115.35,0,68-31.1,107.24-62.19,129.77-31.08,23-71.64,36.5-129.32,36.5-30.64,0-83.35-.9-127.07-1.36H1874c-2.25-4,3.61-19.82,7.21-20.27,11.72-1.35,14.88-1.81,20.73-4,9.46-3.61,11.27-8.57,12.62-25.24,1.35-31.09.9-68.49.9-110.85,0-30.18.45-89.21-.45-108.14-1.35-15.77-8.11-19.82-21.63-22.53-6.76-1.35-15.77-3.15-28.38-4.5-1.81-3.16,6.3-17.13,8.55-19.83,8.57,0,41.46,1.35,57.23,1.35,28.39,0,48.66-1.35,102.28-1.35C2078.07,270.5,2115.92,282.67,2143,305.65Zm-44.16,231.6c23.89-21.62,40.56-55,40.56-108.14,0-50.92-19.38-92.38-59-116.7-22.53-14-51.37-19.83-84.71-19.83-9.92,0-19.38.45-25.23,3.15-1.36.91-4.51,5-4.51,7.21-.9,9-.9,78.4-.9,119,0,41.9,0,100.48.9,107.24,0,6.76,3.15,17.13,9.91,21.63,10.82,8.56,32,12.16,50.92,12.16C2051,562.93,2075.37,558.43,2098.8,537.25Z" transform="translate(0 -1.05)"/><path class="cls-1" d="M1827.09,478.68c0,41-16.22,73.44-47.31,93.27-14.87,9.91-40.55,19.37-61.73,19.37-76.6,0-104.09-56.32-104.09-109,0-36.95,14.87-65.34,44.61-85.61,21.18-13.07,46.42-20.28,68.94-20.28C1786.09,376.39,1827.09,418.3,1827.09,478.68Zm-64.88,80.2c13.06-10.82,19.83-32.44,19.83-62.63,0-58.58-29.3-97.78-72.1-97.78-9.46,0-18,2.25-24.33,6.76C1668,416,1659,437.67,1659,469.21c0,59,29.74,100.49,72.1,100.49C1743.74,569.7,1753.65,566.09,1762.21,558.88Z" transform="translate(0 -1.05)"/><path class="cls-1" d="M1580.62,389.91a34,34,0,0,1-5.86,20.73c-3.6,4.95-11.71,8.56-19.82,8.56h-2.26a98.91,98.91,0,0,1-11.72-1.81l-1.79.91c-.45.9,0,1.8.44,3.15l.46.9c.9,4.06,2.7,16.22,2.7,19.38,0,36.95-14.87,53.16-30.64,65.33a103.74,103.74,0,0,1-52.72,20.28,56.62,56.62,0,0,0-6.31.45c-2.25,0-5.4.45-5.86.45h-.45c-3.6.9-12.61,5.41-12.61,13.06,0,6.76,4,14.88,23.43,16.23,4.05.45,8.1.45,12.61.9,25.69,1.8,57.68,4.06,72.55,9,20.73,7.66,33.79,26.14,33.79,48.22,0,33.34-23.87,64.43-63.53,83.8-19.37,8.57-38.75,13.08-59.93,13.08-27.48,0-47.31-5.86-64.43-18.93C1372,681,1364.79,662.07,1364.79,649a34.52,34.52,0,0,1,9-22.53c5-5.41,15.77-15.77,41.45-33.34.9-.45,1.35-.9,1.35-1.81a3,3,0,0,0-1.8-2.25c-21.18-8.11-27.49-21.18-29.29-28.39v-.9c-.45-2.7-1.35-5.4,2.71-8.11,3.15-2.25,7.66-5,12.61-8.1,7.66-4.52,15.77-9.47,20.73-13.53a3.31,3.31,0,0,0,.9-2.7,3,3,0,0,0-1.81-2.25c-31.53-10.37-47.3-33.8-47.3-69,0-23,10.36-43.7,28.83-56.77,12.62-9.91,44.16-22.08,64.89-22.08h1.35c21.18.45,32.89,5,49.56,10.82,9,3.15,17.58,4.5,29.3,4.5,17.57,0,25.23-5.41,31.53-11.71C1579.27,381.8,1580.17,384.05,1580.62,389.91Zm-41.45,248.28c0-17.13-8.57-28.39-26.14-34.7-12.61-5.41-35.59-8.11-63.08-8.11a38.7,38.7,0,0,0-19.38,5c-18.92,12.16-27.48,23.87-27.48,37.85,0,13.06,5,23.42,15.77,32.44,13.06,11.26,31.09,16.67,54.06,16.67C1518.89,687.3,1539.17,662.52,1539.17,638.19ZM1487.79,497.6c8.57-8.11,14.43-24.33,14.43-41.46,0-37.39-18.48-59.92-49.12-59.92-23.88,0-38.75,18.47-38.75,47.31,0,29.29,13.07,63.08,50,63.08C1470.67,506.61,1482.39,503.91,1487.79,497.6Z" transform="translate(0 -1.05)"/><path class="cls-1" d="M1328.29,568.34c1.8,3.61.89,16.68-1.35,19.38-7.21,0-25.24-1.35-53.18-1.35-22.52,0-37.85,1.35-50.91,1.35-2.25-3.15-3.16-17.12,0-20.28,9.46-.9,17.57-2.7,20.73-4.06,6.75-2.25,8.1-6.75,8.1-24.78,0-33.34.9-71.64-1.35-91-1.35-8.56-4.5-20.27-14.42-28.38-7.21-5.86-16.67-10.37-31.09-10.37-14.86,0-31.54,6.31-41.91,15.32-2.7,2.71-5.4,7.21-5.4,16.68,0,34.24,0,84.7.9,108.59.45,9.46,2.71,13.51,10.82,15.32,5.85,1.8,12.16,2.7,20.73,3.15,1.8,3.16.89,16.68-2.26,20.28-7.66,0-23-1.35-52.71-1.35-21.64,0-47.77,1.35-52.73,1.35-2.7-3.15-2.7-17.57,0-20.28,7.66-.9,12.62-2.25,18.93-3.6l-.91.45c8.12-1.8,11.27-5.86,11.72-17.12,1.35-28.39,1.35-80.21.9-114,0-4.06.45-9-4.06-12.62-6.3-4.06-14.42-8.11-26.57-11.72h-.45c-11.27-3.6-8.57-14,2.24-16.22,14.88-1.35,55.43-10.81,69.85-18,0,0,3.6,3.15,3.15,9.46-.45,6.76-1.35,16.67-1.35,21.63-.45,5,3.15,1.8,3.6,1.35C1181.39,388.56,1208,375,1227.8,375c22.54,0,40.11,9.91,52.27,27,10.37,14.86,14.42,36,14.42,60.38,0,30.18,0,75.24.9,91,0,1.81,2.26,6.31,3.61,7.21C1308.91,565.19,1317,567,1328.29,568.34Z" transform="translate(0 -1.05)"/><path class="cls-1" d="M1032.25,478.68c0,41-16.22,73.44-47.32,93.27-14.42,9.91-40.1,19.37-61.73,19.37-76.6,0-104.08-56.32-104.08-109,0-36.95,14.86-65.34,44.6-85.61,21.18-13.07,46.42-20.28,68.95-20.28C991.24,376.39,1032.25,418.3,1032.25,478.68Zm-64.89,80.2c13.06-10.82,19.83-32.44,19.83-62.63,0-58.58-28.84-97.78-72.1-97.78-9.46,0-18,2.25-24.33,6.76-17.57,10.81-26.59,32.44-26.59,64,0,59,29.74,100.49,72.1,100.49C948.89,569.7,958.8,566.09,967.36,558.88Z" transform="translate(0 -1.05)"/><path class="cls-1" d="M786.22,571.05c.9,3.15-.9,14.86-2.7,17.12a110.49,110.49,0,0,1-11.26-.45q-17.12-.88-34.25-.9c-27.94,0-42.36.45-56.33,1.35-.89-3.6-1.35-14.42,0-17.12A139.46,139.46,0,0,0,698.81,567c9-2.7,11.26-6.76,11.72-18.47,0-8.56,1.79-81.56-.91-99.13-2.7-18-16.22-39.2-46-39.2-11.27,0-28.84,4.5-46,17.56a8.07,8.07,0,0,0-1.81,4.51v.46c1.81,9.45,1.81,20.27,1.81,36.94V499c0,20.28-.45,39.21,0,53.62,0,9.92,5.86,12.17,10.82,14,2.7.45,4.5.9,6.75,1.35,4.06.9,8.11,1.81,14.42,3.16.91,1.8.91,7.66-.45,12.61a8.59,8.59,0,0,1-1.8,4.51c-15.32-.45-31.09-.9-54.07-.9-6.76,0-18.48.45-28.39.45-8.11,0-15.77.45-20.27.45-.46-.9-1.36-4-1.36-9,0-4.06.9-7.21,1.81-8.11a30.39,30.39,0,0,1,6.3-.9c5.41-.91,9.92-1.81,14.42-2.71,7.67-2.25,10.37-6.31,10.81-16.22,1.36-22.53,2.71-87-.44-103.19-5.41-26.13-20.28-39.2-44.16-39.2-14,0-31.55,6.76-46,17.58-2.26,1.8-4.06,6.3-4.06,10.36v26.59c0,32.44,0,73,.45,90.57.45,5.4,2.25,11.71,12.62,14a95.33,95.33,0,0,0,10.36,1.81l8.11,1.35c.91,2.7.45,13.52-1.35,17.12-4.51,0-9.91-.45-16.22-.45-9.46-.45-21.63-.9-35.15-.9-15.77,0-27,.45-36.05.9a109.17,109.17,0,0,0-16.67-.9c-.9-1.35-1.8-5.41-1.35-10.36a15.24,15.24,0,0,1,1.35-6.76A166.21,166.21,0,0,0,428,565.64c9-2.26,12.62-7.21,13.06-18.47,1.36-27,1.36-78.41.91-114v-.91c0-4.05,0-9-5-12.62a101.73,101.73,0,0,0-27-11.71c-4.06-1.35-6.76-3.6-6.31-6.3,0-2.71,2.7-5.86,8.56-6.77,14.87-1.35,53.61-10.81,68.94-17.57.9.9,2.25,3.61,2.25,7.21l-.45,4.95c-.45,5-.9,10.82-.9,16.68a3.48,3.48,0,0,0,3.6,3.15,6.39,6.39,0,0,0,2.71-.9c28.84-22.53,55-30.64,68.49-30.64,22.08,0,39.2,10.37,52.27,32a3.39,3.39,0,0,0,3.15,1.81,3.24,3.24,0,0,0,2.71-1.35c26.58-20.28,53.17-32.45,70.74-32.45,41.9,0,66.69,31.09,66.69,83.81,0,14.87,0,34.25-.45,51.83,0,15.76-.45,30.18-.45,40.55,0,2.24,3.15,9.45,8.1,10.81,6.31,3.15,14.88,4.5,26.14,6.31Z" transform="translate(0 -1.05)"/><path class="cls-1" d="M305,276.35c28.37,165.83-55.41,267.11-99.15,307.44-18.49-251.73-34.11-389.85-47-452.76-1-59.59-2.74-112.39-6.17-127.08l0-1.1S162.6,28.08,173,42.5C182.43,62.78,268.49,115.5,305,276.35Z" transform="translate(0 -1.05)"/><path class="cls-2" d="M205.84,583.79c0,.11,0,.21,0,.32s-.31.15-.87.46Z" transform="translate(0 -1.05)"/><path class="cls-1" d="M205.84,583.79l-.85.78c-3.14,1.71-14.11,8.12-22.5,18.4-.93.65-1.42,1-1.42,1-18-8.45-23.32-47.53-24.19-84.17,4-50,6-114.81,3.92-182.13-.77-19.09-.51-120-1.92-206.61C171.73,193.94,187.35,332.06,205.84,583.79Z" transform="translate(0 -1.05)"/><path class="cls-1" d="M182.49,603c8.39-10.28,19.36-16.69,22.5-18.4A236,236,0,0,1,182.49,603Z" transform="translate(0 -1.05)"/><path class="cls-1" d="M181.07,603.94s.49-.32,1.42-1A44.66,44.66,0,0,0,173,622c-5.41,23.44-1.8,73-1.8,73l-18.47-6.31s1.21-50.59-11.46-80.27c1.3.94,2,1.42,2,1.42,4.93-11.58,10.06-44.68,13.65-90C157.75,556.41,163.07,595.49,181.07,603.94Z" transform="translate(0 -1.05)"/><path class="cls-1" d="M160.8,337.64c2.12,67.32,0,132.16-3.92,182.13a639,639,0,0,1,2.57-69.49l-5.12-338.9c1.47,5.48,3,12,4.55,19.65C160.29,217.62,160,318.55,160.8,337.64Z" transform="translate(0 -1.05)"/><path class="cls-1" d="M154.33,111.38l5.12,338.9a639,639,0,0,0-2.57,69.49c-3.59,45.35-8.72,78.45-13.65,90,0,0-.7-.48-2-1.42-4.6-10.81-11.06-18.86-20.09-20.66C104.38,568.26,114.57-36.33,154.33,111.38Z" transform="translate(0 -1.05)"/><path class="cls-1" d="M152.71,4c3.43,14.69,5.19,67.49,6.17,127.08-1.56-7.64-3.08-14.17-4.55-19.65Z" transform="translate(0 -1.05)"/><path class="cls-1" d="M152.71,4l1.62,107.43c-39.76-147.71-50,456.88-33.19,476.34,9,1.8,15.49,9.85,20.09,20.66C123.35,595.36-8,493.77.39,323.67,9,141.18,116.19,51.51,136.91,35.29c13.52-14.42,14-19.83,14.88-34.24A15.87,15.87,0,0,1,152.71,4Z" transform="translate(0 -1.05)"/></svg>