<svg id="Layer_1" data-name="Layer 1" xmlns="http://www.w3.org/2000/svg" viewBox="0 0 895.89 576"><defs><style>.cls-1{fill:#fff;}</style></defs><title>Mysql_Icon</title><path class="cls-1" d="M959.83,286.24V737.76A62.25,62.25,0,0,1,897.59,800H126.18a62.25,62.25,0,0,1-62.24-62.24V286.24A62.24,62.24,0,0,1,126.18,224H897.59A62.25,62.25,0,0,1,959.83,286.24Zm-32,451.52V286.24A30.29,30.29,0,0,0,897.59,256H126.18a30.28,30.28,0,0,0-30.25,30.25V737.76A30.28,30.28,0,0,0,126.18,768H897.59A30.29,30.29,0,0,0,927.84,737.76Z" transform="translate(-63.94 -224)"/><polygon class="cls-1" points="800.06 449.4 800.06 469.33 796.01 469.33 795.98 469.33 795.98 454.16 790.33 469.33 787.4 469.33 781.75 454.16 781.53 454.16 781.53 469.33 777.7 469.33 777.7 449.4 783.57 449.4 788.99 463 793.96 449.4 800.06 449.4"/><path d="M832.13,499.86l-.08.05s0,0,0-.05Z" transform="translate(-63.94 -224)"/><polygon class="cls-1" points="763.27 469.33 763.29 469.31 763.31 469.31 763.31 452.75 757.45 452.75 757.45 449.36 773.22 449.36 773.22 452.75 767.59 452.75 767.59 469.33 763.27 469.33"/><polygon class="cls-1" points="744.75 469.35 667.58 469.35 667.58 306.61 693.54 306.61 693.54 449.32 744.73 449.32 744.73 469.34 744.75 469.34 744.75 469.35"/><path class="cls-1" d="M711.32,697.27l0,0-10.58,18.28-38.85-22.66a74.6,74.6,0,0,1-21.25,2.86q-31,0-46.38-18.08-16.83-20-16.83-62.92,0-43.63,19-66,17.31-20.51,48.33-20.51Q708,528.24,708,609q0,43.89-19,66.29a55,55,0,0,1-7.45,7.26Zm-30.76-83.74q0-34.72-9.85-50.62-9.15-14.7-28.62-14.7-37.27,0-37.27,61.47,0,35.21,9.86,51.1h0q9.12,14.73,28.6,14.72Q680.56,675.47,680.56,613.53Z" transform="translate(-63.94 -224)"/><path class="cls-1" d="M852.8,558.27c-2.5-.88-3.74-3.22-5.69-4.64-3.94-2.68-7.84-5.9-11.78-8.4-6.74-4.29-14.61-6.79-21.55-11.09-3.94-2.5-7.67-5.36-11.41-8.22-3.4-2.5-7.12-7.31-9.26-10.89-1.26-2-1.41-4.3-2.86-5.72.38-3.37,4.64-3.37,7.32-4.46,9.23-3.93,20.26-5.34,34.47-5,0,0,0,0,0,.05l.08-.05H832c-.6-3.57-9.44-8-12.27-10.12-5.72-4.12-11.76-8.42-17.82-12.16-3.18-2-8.72-3.4-12.28-5-4.8-2-15.51-3.93-18.17-7.67-5.33-7-8.9-15.56-12.64-24-3.74-8.57-8.38-17.5-12.12-26.27-2-4.28-2.86-8-5-12.14a158.39,158.39,0,0,0-55.58-61.11,113,113,0,0,0-25.65-12.33c-5.35-1.62-11.77-.72-17.47-2h-3.76c-3.2-.9-5.87-4.27-8.37-6.08a91.7,91.7,0,0,0-17.64-8.93c-2.3-1.07-8.9-3.56-11.2-1.6a2.8,2.8,0,0,0-2.5,2.32c-1.41,2.11-.15,5.33.73,7.31,2.67,5.72,6.41,9.11,9.81,13.93,3,4.28,6.78,9.1,8.92,13.76,4.61,10,6.77,21.09,11.05,31.08a69.87,69.87,0,0,0,6.4,11.44c2,2.69,5.51,4.63,6.6,8.05,2.13,3.58-3.22,15.37-4.46,19.11-4.64,14.65-3.74,35,1.6,47.72,2.14,5,4.1,10.89,9.8,12.31.36-.36,0-.18.7-.36,1.25-9.84,1.61-19.29,5-27,2-4.82,5.88-8.21,8.56-12.13,1.8,1.08,1.8,4.3,2.86,6.43,2.32,5.54,4.82,11.6,7.67,17.16a229.75,229.75,0,0,0,20,32.51A91.86,91.86,0,0,0,704,504.9c1.42,1.24,3,2,4.1,3.56h.34V509c-5.35-2-8.75-7.49-13-10.74-8-6.07-17.63-15.19-23.17-23.93-2.32-5-4.81-9.83-7.31-14.83v-.36c-1.06,1.42-.7,2.83-1.24,5-2.32,8.93-.54,19.11-8.56,22.32-9.09,3.77-15.87-6.07-18.71-10.53-9.1-14.83-11.59-39.84-5.18-60,1.42-4.46,1.62-9.82,4.1-13.4-.54-3.21-3-4.09-4.46-6.07a86.46,86.46,0,0,1-6.58-11.08c-3.76-7.33-6.43-16.09-9.27-24-1.26-3.22-1.62-6.44-2.86-9.47-2.12-4.64-6.06-9.3-9.08-13.4-4.09-5.89-16-17.33-11.23-28.94,7.5-18.42,33.69-4.48,43.84,2,2.48,1.6,5.34,5,8.2,6.26,4.45.16,8.9.52,13.36.7,8.36,2,16.22,3.58,22.81,7.34,30.66,18,50.58,36.42,69,66.81,3.94,6.43,5.9,13.41,9.1,20.37,4.46,10.37,9.45,21.27,14.61,31.08,2.32,4.66,4.1,9.82,7.32,13.75,1.23,1.8,4.81,2.32,6.93,3.4,5.89,3.06,13,5.36,18.53,8.94a237.07,237.07,0,0,1,29.41,22c3.38,3,5.7,7.32,8.92,10.54v1.61c-2.88.89-5.72,1.78-8.58,2.5-6.25,1.6-11.76,1.24-17.81,2.84-3.73,1.09-8.37,2.53-12.29,2.89l.36.36c2.3,6.61,14.8,12,20.49,15.9a84.79,84.79,0,0,1,18.54,18c1.8,1.78,3.57,3.4,5.35,5.18,1.24,1.8,1.58,4.12,2.84,5.72Z" transform="translate(-63.94 -224)"/><path class="cls-1" d="M657.34,352.43c0,4.3-1.22,7.16-3.75,8.94,0,0-.16.18-.34.36-1.44-2.88-2.68-5.72-4.12-8.58-1.76-2.5-4.25-4.48-5.7-7.34h-.34v-.36a28.13,28.13,0,0,1,7.3-.9v0c1.44,1.41,3.76,2.31,4.82,4.09C656.1,349.93,656.26,351.17,657.34,352.43Z" transform="translate(-63.94 -224)"/><path class="cls-1" d="M566,648.2l.06,0q0,20.7-15.14,34t-40.61,13.25q-23.84,0-46.15-15.2l7-14q19.24,9.63,34.85,9.63,14.64,0,23-6.5a22.13,22.13,0,0,0,8.83-18.06c0-9.66-6.71-17.93-19.06-24.86-11.37-6.27-34.14-19.34-34.14-19.34-12.32-9-18.5-18.68-18.5-34.63q0-19.77,13.81-31.95t35.71-12.18a73.63,73.63,0,0,1,41.09,12.05l-6.27,14a79.4,79.4,0,0,0-31.24-6.73q-12.51,0-19.23,6a20.15,20.15,0,0,0-7.28,15.42c0,9.63,6.86,18,19.53,25.05,11.53,6.27,34.83,19.6,34.83,19.6C559.73,622.81,566,632.4,566,648.2Z" transform="translate(-63.94 -224)"/><path class="cls-1" d="M447.12,573.29h0q-16.61,90.26-43.76,131.19Q382.22,736,357,736q-6.74,0-16.59-4V717.46a82.29,82.29,0,0,0,11.31.72q11.78,0,19-6.5,8.64-7.95,8.64-17.85,0-6.76-6.73-27.71l-29.81-92.83h26.69l21.4,69.41q7.19,23.63,6,33,17.56-47,24.53-102.45Z" transform="translate(-63.94 -224)"/><path class="cls-1" d="M329.25,693.34H302.13q-1.42-69-7.95-129.68h-.24L252.59,693.34H231.92l-41.1-129.68h-.24Q186,622,184.8,693.34H160q2.41-86.79,12-162.73H205.7l39.18,119.58h.25l39.42-119.58h32.21Q327.35,619.54,329.25,693.34Z" transform="translate(-63.94 -224)"/></svg>