<svg id="Layer_2" data-name="Layer 2" xmlns="http://www.w3.org/2000/svg" viewBox="0 0 490.6 568.19"><defs><style>.cls-1,.cls-3{fill:#fff;}.cls-2{fill:#61dafb;}.cls-3{font-size:119px;font-family:Calibri, Calibri;}.cls-4{letter-spacing:-0.02em;}</style></defs><title>React_Icon</title><path class="cls-1" d="M297.9,27.5v-.1c27.5,0,63.5,19.4,99.9,53.2,18.2-17,36.3-30.4,53.29-39.55S484,27,497.7,27v.1h-.1V49.3c-20.8.05-51.35,16.65-83.9,46.9a487.8,487.8,0,0,1,41.6,50,484.62,484.62,0,0,1,63.5,10.9c2.2-10.1,4-20,5.1-29.4,4.6-38.2-1.3-67.9-14.9-75.7a23.16,23.16,0,0,0-11.4-2.6v-.1h.1V27.1A43.8,43.8,0,0,1,520,32.7c28.2,16.2,34.6,66.8,20.2,130.4,62.4,19.1,103.1,49.9,103.1,82.4s-40.5,63.2-102.5,82.3c14.5,63.4,8.2,113.9-19.9,130.1a44.59,44.59,0,0,1-22.6,5.6c-27.5,0-63.5-19.4-99.9-53.2-36.4,34-72.4,53.6-99.9,53.6-8.4,0-16-1.8-22.5-5.6-28.2-16.2-34.6-66.8-20.2-130.4-62.4-19.1-103.1-49.9-103.1-82.4s40.5-63.1,102.7-82.3c-14.5-63.4-8.2-113.9,19.9-130.1a40.35,40.35,0,0,1,10.62-4.22A50,50,0,0,1,297.9,27.5Zm0,22.2v.1c-4.6,0-8.5.8-11.5,2.6-13.5,7.9-19.3,37.6-14.6,75.8,1.2,9.3,2.9,19,5.2,29a467,467,0,0,1,63.6-11,472.31,472.31,0,0,1,41.3-49.9C349.3,66.2,318.6,49.7,297.9,49.7ZM621.1,245.5c0-15.7-22.9-35.5-58.3-50.6-8.8-3.7-18.2-7.1-28.1-10.2a473.51,473.51,0,0,1-22.2,60.6A480.28,480.28,0,0,1,535,306.2c9.7-3.1,19.1-6.4,27.7-10.1C598.1,281.1,621,261.2,621.1,245.5ZM509.6,438.6c13.5-7.9,19.3-37.6,14.6-75.8a279.94,279.94,0,0,0-5.2-29.1,467,467,0,0,1-63.6,11,472.31,472.31,0,0,1-41.3,49.9c32.6,30.1,63.3,46.6,84,46.6C502.7,441.2,506.6,440.4,509.6,438.6Zm-10-220.3c5.2-13.3,9.8-26.6,13.5-39.5-13.1-3.2-26.8-5.8-41-7.9,4.9,7.6,9.8,15.4,14.4,23.4S495.5,210.3,499.6,218.3Zm13.8,93.8c-3.8-13-8.4-26.4-13.8-39.8-4.1,8-8.4,16.1-13,24.1s-9.5,16-14.4,23.7C486.5,318,500.3,315.3,513.4,312.1Zm-46.1-26.8c7.5-13.1,14.4-26.5,20.7-39.9q-9.45-20.1-20.8-39.8-11.7-20.1-24.2-38c-14.8-1.2-29.9-1.9-45-1.9s-30.3.7-45.2,2c-8.3,11.9-16.3,24.7-24.1,38.2-7.5,13.1-14.5,26.5-20.7,39.9q9.45,20.1,20.8,39.8,11.7,20.1,24.2,38c14.8,1.2,29.9,1.9,45,1.9s30.3-.7,45.2-2C451.5,311.6,459.5,298.8,467.3,285.3ZM398.2,379a390.33,390.33,0,0,0,27.5-32c-9.1.5-18.4.7-27.8.7s-18.5-.3-27.5-.7A412.27,412.27,0,0,0,398.2,379Zm27.3-235a412.27,412.27,0,0,0-27.8-32,390.33,390.33,0,0,0-27.5,32c9.1-.5,18.4-.7,27.8-.7S416.5,143.6,425.5,144ZM382.3,394.8a487.8,487.8,0,0,1-41.6-50,484.62,484.62,0,0,1-63.5-10.9c-2.2,10.1-4,20-5.1,29.4-4.6,38.2,1.3,67.9,14.9,75.7a23.87,23.87,0,0,0,11.3,2.7C319.1,441.7,349.7,425.1,382.3,394.8Zm-58.5-74.7q-7.35-11.4-14.4-23.4c-4.7-8-9-16-13.1-24-5.2,13.3-9.8,26.6-13.5,39.5C295.9,315.4,309.6,318,323.8,320.1ZM309.3,194.6c4.6-8.1,9.5-16,14.4-23.7-14.3,2.1-28.1,4.8-41.2,7.9,3.8,13,8.4,26.4,13.8,39.8C300.4,210.6,304.7,202.6,309.3,194.6ZM261.2,306.3a473.51,473.51,0,0,1,22.2-60.6,480.28,480.28,0,0,1-22.5-60.9c-9.7,3.1-19.1,6.4-27.7,10.1-35.4,15-58.3,34.9-58.3,50.6s22.9,35.5,58.3,50.6C241.9,299.8,251.3,303.2,261.2,306.3Z" transform="translate(-152.7 -27)"/><path class="cls-2" d="M497.7,27.1V49.3h-.1V27.1Z" transform="translate(-152.7 -27)"/><path class="cls-2" d="M297.8,27.4Z" transform="translate(-152.7 -27)"/><circle class="cls-1" cx="245.2" cy="218.5" r="45.7"/><path class="cls-2" d="M497.5,27.1Z" transform="translate(-152.7 -27)"/><text class="cls-3" transform="translate(109.3 531)"><tspan class="cls-4">R</tspan><tspan x="62.52" y="0">eact</tspan></text></svg>